<svg xmlns="http://www.w3.org/2000/svg" width="507.03790283203125" height="404.8827819824219" viewBox="-170.9196319580078 -119.8779296875 507.03790283203125 404.8827819824219"><title>Neo4j Graph Visualization</title><desc>Created using Neo4j (http://www.neo4j.com/)</desc><g class="layer relationships"><g class="relationship" transform="translate(122.78740129521333 137.29295260477323) rotate(446.55152585461445)"><path class="outline" fill="#A5ABB6" stroke="none" d="M 25 0.5 L 35.17258944068521 0.5 L 35.17258944068521 -0.5 L 25 -0.5 Z M 76.75462069068521 0.5 L 86.92721013137042 0.5 L 86.92721013137042 3.5 L 93.92721013137042 0 L 86.92721013137042 -3.5 L 86.92721013137042 -0.5 L 76.75462069068521 -0.5 Z"/><text text-anchor="middle" pointer-events="none" font-size="8px" fill="#000000" x="55.96360506568521" y="3" font-family="sans-serif">related_to</text></g><g class="relationship" transform="translate(124.23368764277726 17.83546503895774) rotate(450.6936530880006)"><path class="outline" fill="#A5ABB6" stroke="none" d="M 25 0.5 L 38.33468371372889 0.5 L 38.33468371372889 -0.5 L 25 -0.5 Z M 74.1315587137289 0.5 L 87.46624242745779 0.5 L 87.46624242745779 3.5 L 94.46624242745779 0 L 87.46624242745779 -3.5 L 87.46624242745779 -0.5 L 74.1315587137289 -0.5 Z"/><text text-anchor="middle" pointer-events="none" font-size="8px" fill="#000000" x="56.23312121372889" y="3" transform="rotate(180 56.23312121372889 0)" font-family="sans-serif">contains</text></g><g class="relationship" transform="translate(222.42667925441208 84.51160833932295) rotate(402.21311543716604)"><path class="outline" fill="#A5ABB6" stroke="none" d="M 25 0.5 L 31.101519445813757 0.5 L 31.101519445813757 -0.5 L 25 -0.5 Z M 76.24605069581375 0.5 L 82.34757014162751 0.5 L 82.34757014162751 3.5 L 89.34757014162751 0 L 82.34757014162751 -3.5 L 82.34757014162751 -0.5 L 76.24605069581375 -0.5 Z"/><text text-anchor="middle" pointer-events="none" font-size="8px" fill="#000000" x="53.67378507081376" y="3" font-family="sans-serif">belongs_to</text></g><g class="relationship" transform="translate(142.67469619891622 -90.87792899899542) rotate(459.6274172899781)"><path class="outline" fill="#A5ABB6" stroke="none" d="M 25 0.5 L 35.074592353786116 0.5 L 35.074592353786116 -0.5 L 25 -0.5 Z M 68.19177985378612 0.5 L 78.26637220757223 0.5 L 78.26637220757223 3.5 L 85.26637220757223 0 L 78.26637220757223 -3.5 L 78.26637220757223 -0.5 L 68.19177985378612 -0.5 Z"/><text text-anchor="middle" pointer-events="none" font-size="8px" fill="#000000" x="51.633186103786116" y="3" transform="rotate(180 51.633186103786116 0)" font-family="sans-serif">reviews</text></g><g class="relationship" transform="translate(-141.91962567014218 141.91717474394974) rotate(370.67969061863255)"><path class="outline" fill="#A5ABB6" stroke="none" d="M 25 0.5 L 43.501490842019024 0.5 L 43.501490842019024 -0.5 L 25 -0.5 Z M 56.173365842019024 0.5 L 74.67485668403805 0.5 L 74.67485668403805 3.5 L 81.67485668403805 0 L 74.67485668403805 -3.5 L 74.67485668403805 -0.5 L 56.173365842019024 -0.5 Z"/><text text-anchor="middle" pointer-events="none" font-size="8px" fill="#000000" x="49.837428342019024" y="3" font-family="sans-serif">of</text></g><g class="relationship" transform="translate(-141.91962567014218 141.91717474394974) rotate(292.18732321107586)"><path class="outline" fill="#A5ABB6" stroke="none" d="M 25 0.5 L 46.79599911837227 0.5 L 46.79599911837227 -0.5 L 25 -0.5 Z M 59.46787411837227 0.5 L 81.26387323674454 0.5 L 81.26387323674454 3.5 L 88.26387323674454 0 L 81.26387323674454 -3.5 L 81.26387323674454 -0.5 L 59.46787411837227 -0.5 Z"/><text text-anchor="middle" pointer-events="none" font-size="8px" fill="#000000" x="53.13193661837227" y="3" font-family="sans-serif">of</text></g><g class="relationship" transform="translate(124.23368764277726 17.83546503895774) rotate(490.84148433234526)"><path class="outline" fill="#A5ABB6" stroke="none" d="M 6.953439040707552 24.018736134675446 L 17.306200844808384 62.65576918623819 A 17.916697508022974 17.916697508022974 0 1 1 -17.306200844808384 62.65576918623819 L -8.765172356425198 30.780216918698923 L -4.901469051268926 31.815493099109005 L -6.4704761275630185 24.148145657226706 L -11.662949835292403 30.00375978339136 L -7.79924653013613 31.039035963801442 L -16.340275018519314 62.91458823134071 A 16.916697508022974 16.916697508022974 0 1 0 16.340275018519314 62.91458823134071 L 5.987513214418485 24.277555179777966 Z"/><text text-anchor="middle" pointer-events="none" font-size="8px" fill="#000000" x="0" y="94.20964923467838" transform="rotate(180 0 91.20964923467838)" font-family="sans-serif">cited_by</text></g><g class="relationship" transform="translate(-99.14711789047237 37.040020135200834) rotate(368.2602153297326)"><path class="outline" fill="#A5ABB6" stroke="none" d="M 25 0.5 L 44.2909389264687 0.5 L 44.2909389264687 -0.5 L 25 -0.5 Z M 63.1893764264687 0.5 L 82.4803153529374 0.5 L 82.4803153529374 3.5 L 89.4803153529374 0 L 82.4803153529374 -3.5 L 82.4803153529374 -0.5 L 63.1893764264687 -0.5 Z"/><text text-anchor="middle" pointer-events="none" font-size="8px" fill="#000000" x="53.7401576764687" y="3" font-family="sans-serif">has</text></g><g class="relationship" transform="translate(-37.092532477368906 161.68597797817927) rotate(295.3401559073817)"><path class="outline" fill="#A5ABB6" stroke="none" d="M 25 0.5 L 46.909563894752594 0.5 L 46.909563894752594 -0.5 L 25 -0.5 Z M 65.8080013947526 0.5 L 87.71756528950519 0.5 L 87.71756528950519 3.5 L 94.71756528950519 0 L 87.71756528950519 -3.5 L 87.71756528950519 -0.5 L 65.8080013947526 -0.5 Z"/><text text-anchor="middle" pointer-events="none" font-size="8px" fill="#000000" x="56.358782644752594" y="3" font-family="sans-serif">has</text></g><g class="relationship" transform="translate(229.54294792582928 -27.25263451619233) rotate(516.8218395671263)"><path class="outline" fill="#A5ABB6" stroke="none" d="M 25 0.5 L 40.33246901879384 0.5 L 40.33246901879384 -0.5 L 25 -0.5 Z M 67.22309401879383 0.5 L 82.55556303758767 0.5 L 82.55556303758767 3.5 L 89.55556303758767 0 L 82.55556303758767 -3.5 L 82.55556303758767 -0.5 L 67.22309401879383 -0.5 Z"/><text text-anchor="middle" pointer-events="none" font-size="8px" fill="#000000" x="53.77778151879384" y="3" transform="rotate(180 53.77778151879384 0)" font-family="sans-serif">writes</text></g><g class="relationship" transform="translate(124.23368764277726 17.83546503895774) rotate(394.1777434700829)"><path class="outline" fill="#A5ABB6" stroke="none" d="M 25 0.5 L 30.38264772257383 0.5 L 30.38264772257383 -0.5 L 25 -0.5 Z M 81.30842897257384 0.5 L 86.69107669514766 0.5 L 86.69107669514766 3.5 L 93.69107669514766 0 L 86.69107669514766 -3.5 L 86.69107669514766 -0.5 L 81.30842897257384 -0.5 Z"/><text text-anchor="middle" pointer-events="none" font-size="8px" fill="#000000" x="55.84553834757383" y="3" font-family="sans-serif">published_in</text></g><g class="relationship" transform="translate(124.23368764277726 17.83546503895774) rotate(522.0555513747124)"><path class="outline" fill="#A5ABB6" stroke="none" d="M 25 0.5 L 28.895666289003586 0.5 L 28.895666289003586 -0.5 L 25 -0.5 Z M 79.82144753900359 0.5 L 83.71711382800717 0.5 L 83.71711382800717 3.5 L 90.71711382800717 0 L 83.71711382800717 -3.5 L 83.71711382800717 -0.5 L 79.82144753900359 -0.5 Z"/><text text-anchor="middle" pointer-events="none" font-size="8px" fill="#000000" x="54.358556914003586" y="3" transform="rotate(180 54.358556914003586 0)" font-family="sans-serif">published_in</text></g><g class="relationship" transform="translate(142.67469619891622 -90.87792899899542) rotate(396.2203296059096)"><path class="outline" fill="#A5ABB6" stroke="none" d="M 25 0.5 L 37.775848916255185 0.5 L 37.775848916255185 -0.5 L 25 -0.5 Z M 62.900848916255185 0.5 L 75.67669783251037 0.5 L 75.67669783251037 3.5 L 82.67669783251037 0 L 75.67669783251037 -3.5 L 75.67669783251037 -0.5 L 62.900848916255185 -0.5 Z"/><text text-anchor="middle" pointer-events="none" font-size="8px" fill="#000000" x="50.338348916255185" y="3" font-family="sans-serif">is_an</text></g></g><g class="layer nodes"><g class="node" transform="translate(122.78740129521333,137.29295260477323)"><circle class="outline" cx="0" cy="0" r="25" fill="#A5ABB6" stroke="#9AA1AC" stroke-width="2px"/><text text-anchor="middle" pointer-events="none" font-family="sans-serif" dy="1.5625" font-size="25" fill="#FFFFFF"/><text text-anchor="middle" pointer-events="none" y="5" font-size="10px" fill="#FFFFFF" font-family="sans-serif"> Keyword</text></g><g class="node" transform="translate(222.42667925441208,84.51160833932295)"><circle class="outline" cx="0" cy="0" r="25" fill="#569480" stroke="#447666" stroke-width="2px"/><text text-anchor="middle" pointer-events="none" font-family="sans-serif" dy="1.5625" font-size="25" fill="#FFFFFF"/><text text-anchor="middle" pointer-events="none" y="5" font-size="10px" fill="#FFFFFF" font-family="sans-serif"> Volume</text></g><g class="node" transform="translate(14.145554358528528,53.48730009233829)"><circle class="outline" cx="0" cy="0" r="25" fill="#569480" stroke="#447666" stroke-width="2px"/><text text-anchor="middle" pointer-events="none" font-family="sans-serif" dy="1.5625" font-size="25" fill="#FFFFFF"/><text text-anchor="middle" pointer-events="none" y="5" font-size="10px" fill="#FFFFFF" font-family="sans-serif"> Editon</text></g><g class="node" transform="translate(229.54294792582928,-27.25263451619233)"><circle class="outline" cx="0" cy="0" r="25" fill="#8DCC93" stroke="#5db665" stroke-width="2px"/><text text-anchor="middle" pointer-events="none" font-family="sans-serif" dy="1.5625" font-size="25" fill="#604A0E"/><text text-anchor="middle" pointer-events="none" y="5" font-size="10px" fill="#604A0E" font-family="sans-serif"> Author</text></g><g class="node" transform="translate(124.23368764277726,17.83546503895774)"><circle class="outline" cx="0" cy="0" r="25" fill="#F16667" stroke="#eb2728" stroke-width="2px"/><text text-anchor="middle" pointer-events="none" font-family="sans-serif" dy="1.5625" font-size="25" fill="#FFFFFF"/><text text-anchor="middle" pointer-events="none" y="5" font-size="10px" fill="#FFFFFF" font-family="sans-serif"> Paper</text></g><g class="node" transform="translate(307.11830026821497,161.34061410764463)"><circle class="outline" cx="0" cy="0" r="25" fill="#C990C0" stroke="#b261a5" stroke-width="2px"/><text text-anchor="middle" pointer-events="none" font-family="sans-serif" dy="1.5625" font-size="25" fill="#FFFFFF"/><text text-anchor="middle" pointer-events="none" y="5" font-size="10px" fill="#FFFFFF" font-family="sans-serif"> Journal</text></g><g class="node" transform="translate(-141.91962567014218,141.91717474394974)"><circle class="outline" cx="0" cy="0" r="25" fill="#A5ABB6" stroke="#9AA1AC" stroke-width="2px"/><text text-anchor="middle" pointer-events="none" font-family="sans-serif" dy="1.5625" font-size="25" fill="#FFFFFF"/><text text-anchor="middle" pointer-events="none" y="5" font-size="10px" fill="#FFFFFF" font-family="sans-serif"> Proceed…</text></g><g class="node" transform="translate(-99.14711789047237,37.040020135200834)"><circle class="outline" cx="0" cy="0" r="25" fill="#C990C0" stroke="#b261a5" stroke-width="2px"/><text text-anchor="middle" pointer-events="none" font-family="sans-serif" dy="1.5625" font-size="25" fill="#FFFFFF"/><text text-anchor="middle" pointer-events="none" y="5" font-size="10px" fill="#FFFFFF" font-family="sans-serif"> Workshop</text></g><g class="node" transform="translate(129.94097960582138,256.00482070137565)"><circle class="outline" cx="0" cy="0" r="25" fill="#A5ABB6" stroke="#9AA1AC" stroke-width="2px"/><text text-anchor="middle" pointer-events="none" font-family="sans-serif" dy="1.5625" font-size="25" fill="#FFFFFF"/><text text-anchor="middle" pointer-events="none" y="5" font-size="10px" fill="#FFFFFF" font-family="sans-serif"> Topic</text></g><g class="node" transform="translate(-37.092532477368906,161.68597797817927)"><circle class="outline" cx="0" cy="0" r="25" fill="#C990C0" stroke="#b261a5" stroke-width="2px"/><text text-anchor="middle" pointer-events="none" font-family="sans-serif" dy="1.5625" font-size="25" fill="#FFFFFF"/><text text-anchor="middle" pointer-events="none" y="5" font-size="10px" fill="#FFFFFF" font-family="sans-serif"> Confere…</text></g><g class="node" transform="translate(142.67469619891622,-90.87792899899542)"><circle class="outline" cx="0" cy="0" r="25" fill="#FFE081" stroke="#9AA1AC" stroke-width="2px"/><text text-anchor="middle" pointer-events="none" font-family="sans-serif" dy="1.5625" font-size="25" fill="#FFFFFF"/><text text-anchor="middle" pointer-events="none" y="5" font-size="10px" fill="#FFFFFF" font-family="sans-serif"> Reviewer</text></g></g></svg>