<svg xmlns="http://www.w3.org/2000/svg" width="520.7964477539062" height="409.6893310546875" viewBox="-193.33912658691406 -88.39930725097656 520.7964477539062 409.6893310546875"><title>Neo4j Graph Visualization</title><desc>Created using Neo4j (http://www.neo4j.com/)</desc><g class="layer relationships"><g class="relationship" transform="translate(107.62155350681529 176.1301046096874) rotate(458.7147303486397)"><path class="outline" fill="#A5ABB6" stroke="none" d="M 25 0.5 L 34.467302167105814 0.5 L 34.467302167105814 -0.5 L 25 -0.5 Z M 76.04933341710581 0.5 L 85.51663558421163 0.5 L 85.51663558421163 3.5 L 92.51663558421163 0 L 85.51663558421163 -3.5 L 85.51663558421163 -0.5 L 76.04933341710581 -0.5 Z"/><text text-anchor="middle" pointer-events="none" font-size="8px" fill="#000000" x="55.258317792105814" y="3" transform="rotate(180 55.258317792105814 0)" font-family="sans-serif">related_to</text></g><g class="relationship" transform="translate(125.70345816018074 54.8971329252223) rotate(458.4831331400086)"><path class="outline" fill="#A5ABB6" stroke="none" d="M 25 0.5 L 39.88856907427257 0.5 L 39.88856907427257 -0.5 L 25 -0.5 Z M 75.68544407427257 0.5 L 90.57401314854513 0.5 L 90.57401314854513 3.5 L 97.57401314854513 0 L 90.57401314854513 -3.5 L 90.57401314854513 -0.5 L 75.68544407427257 -0.5 Z"/><text text-anchor="middle" pointer-events="none" font-size="8px" fill="#000000" x="57.78700657427257" y="3" transform="rotate(180 57.78700657427257 0)" font-family="sans-serif">contains</text></g><g class="relationship" transform="translate(215.6372602382116 136.13891883616117) rotate(403.7793008031166)"><path class="outline" fill="#A5ABB6" stroke="none" d="M 25 0.5 L 31.28152679550052 0.5 L 31.28152679550052 -0.5 L 25 -0.5 Z M 76.42605804550053 0.5 L 82.70758484100104 0.5 L 82.70758484100104 3.5 L 89.70758484100104 0 L 82.70758484100104 -3.5 L 82.70758484100104 -0.5 L 76.42605804550053 -0.5 Z"/><text text-anchor="middle" pointer-events="none" font-size="8px" fill="#000000" x="53.85379242050052" y="3" font-family="sans-serif">belongs_to</text></g><g class="relationship" transform="translate(91.64544564725479 -59.399312074968115) rotate(433.40701529397904)"><path class="outline" fill="#A5ABB6" stroke="none" d="M 25 0.5 L 39.572827405319146 0.5 L 39.572827405319146 -0.5 L 25 -0.5 Z M 72.69001490531915 0.5 L 87.26284231063829 0.5 L 87.26284231063829 3.5 L 94.26284231063829 0 L 87.26284231063829 -3.5 L 87.26284231063829 -0.5 L 72.69001490531915 -0.5 Z"/><text text-anchor="middle" pointer-events="none" font-size="8px" fill="#000000" x="56.131421155319146" y="3" font-family="sans-serif">reviews</text></g><g class="relationship" transform="translate(-164.33912280085934 80.17528520451663) rotate(312.4030727200784)"><path class="outline" fill="#A5ABB6" stroke="none" d="M 25 0.5 L 45.53210584331767 0.5 L 45.53210584331767 -0.5 L 25 -0.5 Z M 58.20398084331767 0.5 L 78.73608668663535 0.5 L 78.73608668663535 3.5 L 85.73608668663535 0 L 78.73608668663535 -3.5 L 78.73608668663535 -0.5 L 58.20398084331767 -0.5 Z"/><text text-anchor="middle" pointer-events="none" font-size="8px" fill="#000000" x="51.86804334331767" y="3" font-family="sans-serif">of</text></g><g class="relationship" transform="translate(-164.33912280085934 80.17528520451663) rotate(399.6778616677277)"><path class="outline" fill="#A5ABB6" stroke="none" d="M 25 0.5 L 44.8435834115749 0.5 L 44.8435834115749 -0.5 L 25 -0.5 Z M 57.5154584115749 0.5 L 77.3590418231498 0.5 L 77.3590418231498 3.5 L 84.3590418231498 0 L 77.3590418231498 -3.5 L 77.3590418231498 -0.5 L 57.5154584115749 -0.5 Z"/><text text-anchor="middle" pointer-events="none" font-size="8px" fill="#000000" x="51.1795209115749" y="3" font-family="sans-serif">of</text></g><g class="relationship" transform="translate(241.75621426203065 31.945961840362795) rotate(528.8132521728171)"><path class="outline" fill="#A5ABB6" stroke="none" d="M 25 0.5 L 37.75179169017718 0.5 L 37.75179169017718 -0.5 L 25 -0.5 Z M 73.54866669017719 0.5 L 86.30045838035436 0.5 L 86.30045838035436 3.5 L 93.30045838035436 0 L 86.30045838035436 -3.5 L 86.30045838035436 -0.5 L 73.54866669017719 -0.5 Z"/><text text-anchor="middle" pointer-events="none" font-size="8px" fill="#000000" x="55.65022919017718" y="3" transform="rotate(180 55.65022919017718 0)" font-family="sans-serif">cited_by</text></g><g class="relationship" transform="translate(-80.17133990009326 149.9978055689874) rotate(315.56861544162933)"><path class="outline" fill="#A5ABB6" stroke="none" d="M 25 0.5 L 46.70186047192233 0.5 L 46.70186047192233 -0.5 L 25 -0.5 Z M 65.60029797192233 0.5 L 87.30215844384466 0.5 L 87.30215844384466 3.5 L 94.30215844384466 0 L 87.30215844384466 -3.5 L 87.30215844384466 -0.5 L 65.60029797192233 -0.5 Z"/><text text-anchor="middle" pointer-events="none" font-size="8px" fill="#000000" x="56.15107922192233" y="3" font-family="sans-serif">has</text></g><g class="relationship" transform="translate(-89.66512981770465 -1.5943648291100536) rotate(395.7140515984996)"><path class="outline" fill="#A5ABB6" stroke="none" d="M 25 0.5 L 45.35936426280741 0.5 L 45.35936426280741 -0.5 L 25 -0.5 Z M 64.25780176280742 0.5 L 84.61716602561482 0.5 L 84.61716602561482 3.5 L 91.61716602561482 0 L 84.61716602561482 -3.5 L 84.61716602561482 -0.5 L 64.25780176280742 -0.5 Z"/><text text-anchor="middle" pointer-events="none" font-size="8px" fill="#000000" x="54.80858301280741" y="3" font-family="sans-serif">has</text></g><g class="relationship" transform="translate(187.88234764854585 -49.1128060061246) rotate(480.87169161336107)"><path class="outline" fill="#A5ABB6" stroke="none" d="M 25 0.5 L 43.64404649666878 0.5 L 43.64404649666878 -0.5 L 25 -0.5 Z M 70.53467149666878 0.5 L 89.17871799333756 0.5 L 89.17871799333756 3.5 L 96.17871799333756 0 L 89.17871799333756 -3.5 L 89.17871799333756 -0.5 L 70.53467149666878 -0.5 Z"/><text text-anchor="middle" pointer-events="none" font-size="8px" fill="#000000" x="57.08935899666878" y="3" transform="rotate(180 57.08935899666878 0)" font-family="sans-serif">writes</text></g><g class="relationship" transform="translate(125.70345816018074 54.8971329252223) rotate(534.5177561004216)"><path class="outline" fill="#A5ABB6" stroke="none" d="M 25 0.5 L 31.655587483070043 0.5 L 31.655587483070043 -0.5 L 25 -0.5 Z M 82.58136873307004 0.5 L 89.23695621614009 0.5 L 89.23695621614009 3.5 L 96.23695621614009 0 L 89.23695621614009 -3.5 L 89.23695621614009 -0.5 L 82.58136873307004 -0.5 Z"/><text text-anchor="middle" pointer-events="none" font-size="8px" fill="#000000" x="57.11847810807004" y="3" transform="rotate(180 57.11847810807004 0)" font-family="sans-serif">published_in</text></g><g class="relationship" transform="translate(125.70345816018074 54.8971329252223) rotate(402.0931108013365)"><path class="outline" fill="#A5ABB6" stroke="none" d="M 25 0.5 L 31.634791950757908 0.5 L 31.634791950757908 -0.5 L 25 -0.5 Z M 82.56057320075791 0.5 L 89.19536515151582 0.5 L 89.19536515151582 3.5 L 96.19536515151582 0 L 89.19536515151582 -3.5 L 89.19536515151582 -0.5 L 82.56057320075791 -0.5 Z"/><text text-anchor="middle" pointer-events="none" font-size="8px" fill="#000000" x="57.09768257575791" y="3" font-family="sans-serif">published_in</text></g><g class="relationship" transform="translate(91.64544564725479 -59.399312074968115) rotate(366.1010290423588)"><path class="outline" fill="#A5ABB6" stroke="none" d="M 25 0.5 L 32.33004465801125 0.5 L 32.33004465801125 -0.5 L 25 -0.5 Z M 57.45504465801125 0.5 L 64.7850893160225 0.5 L 64.7850893160225 3.5 L 71.7850893160225 0 L 64.7850893160225 -3.5 L 64.7850893160225 -0.5 L 57.45504465801125 -0.5 Z"/><text text-anchor="middle" pointer-events="none" font-size="8px" fill="#000000" x="44.89254465801125" y="3" font-family="sans-serif">is_an</text></g></g><g class="layer nodes"><g class="node" transform="translate(107.62155350681529,176.1301046096874)"><circle class="outline" cx="0" cy="0" r="25" fill="#A5ABB6" stroke="#9AA1AC" stroke-width="2px"/><text text-anchor="middle" pointer-events="none" font-family="sans-serif" dy="1.5625" font-size="25" fill="#FFFFFF"/><text text-anchor="middle" pointer-events="none" y="5" font-size="10px" fill="#FFFFFF" font-family="sans-serif"> Keyword</text></g><g class="node" transform="translate(215.6372602382116,136.13891883616117)"><circle class="outline" cx="0" cy="0" r="25" fill="#569480" stroke="#447666" stroke-width="2px"/><text text-anchor="middle" pointer-events="none" font-family="sans-serif" dy="1.5625" font-size="25" fill="#FFFFFF"/><text text-anchor="middle" pointer-events="none" y="5" font-size="10px" fill="#FFFFFF" font-family="sans-serif"> Volume</text></g><g class="node" transform="translate(241.75621426203065,31.945961840362795)"><circle class="outline" cx="0" cy="0" r="25" fill="#A5ABB6" stroke="#9AA1AC" stroke-width="2px"/><text text-anchor="middle" pointer-events="none" font-family="sans-serif" dy="1.5625" font-size="25" fill="#FFFFFF"/><text text-anchor="middle" pointer-events="none" y="5" font-size="10px" fill="#FFFFFF" font-family="sans-serif"> Cite</text></g><g class="node" transform="translate(5.021057555333425,66.47978101645847)"><circle class="outline" cx="0" cy="0" r="25" fill="#569480" stroke="#447666" stroke-width="2px"/><text text-anchor="middle" pointer-events="none" font-family="sans-serif" dy="1.5625" font-size="25" fill="#FFFFFF"/><text text-anchor="middle" pointer-events="none" y="5" font-size="10px" fill="#FFFFFF" font-family="sans-serif"> Editon</text></g><g class="node" transform="translate(187.88234764854585,-49.1128060061246)"><circle class="outline" cx="0" cy="0" r="25" fill="#8DCC93" stroke="#5db665" stroke-width="2px"/><text text-anchor="middle" pointer-events="none" font-family="sans-serif" dy="1.5625" font-size="25" fill="#604A0E"/><text text-anchor="middle" pointer-events="none" y="5" font-size="10px" fill="#604A0E" font-family="sans-serif"> Author</text></g><g class="node" transform="translate(125.70345816018074,54.8971329252223)"><circle class="outline" cx="0" cy="0" r="25" fill="#F16667" stroke="#eb2728" stroke-width="2px"/><text text-anchor="middle" pointer-events="none" font-family="sans-serif" dy="1.5625" font-size="25" fill="#FFFFFF"/><text text-anchor="middle" pointer-events="none" y="5" font-size="10px" fill="#FFFFFF" font-family="sans-serif"> Paper</text></g><g class="node" transform="translate(298.45731006217295,215.50307552677316)"><circle class="outline" cx="0" cy="0" r="25" fill="#C990C0" stroke="#b261a5" stroke-width="2px"/><text text-anchor="middle" pointer-events="none" font-family="sans-serif" dy="1.5625" font-size="25" fill="#FFFFFF"/><text text-anchor="middle" pointer-events="none" y="5" font-size="10px" fill="#FFFFFF" font-family="sans-serif"> Journal</text></g><g class="node" transform="translate(-164.33912280085934,80.17528520451663)"><circle class="outline" cx="0" cy="0" r="25" fill="#A5ABB6" stroke="#9AA1AC" stroke-width="2px"/><text text-anchor="middle" pointer-events="none" font-family="sans-serif" dy="1.5625" font-size="25" fill="#FFFFFF"/><text text-anchor="middle" pointer-events="none" y="5" font-size="10px" fill="#FFFFFF" font-family="sans-serif"> Proceed…</text></g><g class="node" transform="translate(-89.66512981770465,-1.5943648291100536)"><circle class="outline" cx="0" cy="0" r="25" fill="#C990C0" stroke="#b261a5" stroke-width="2px"/><text text-anchor="middle" pointer-events="none" font-family="sans-serif" dy="1.5625" font-size="25" fill="#FFFFFF"/><text text-anchor="middle" pointer-events="none" y="5" font-size="10px" fill="#FFFFFF" font-family="sans-serif"> Workshop</text></g><g class="node" transform="translate(89.81602632011848,292.290006644065)"><circle class="outline" cx="0" cy="0" r="25" fill="#A5ABB6" stroke="#9AA1AC" stroke-width="2px"/><text text-anchor="middle" pointer-events="none" font-family="sans-serif" dy="1.5625" font-size="25" fill="#FFFFFF"/><text text-anchor="middle" pointer-events="none" y="5" font-size="10px" fill="#FFFFFF" font-family="sans-serif"> Topic</text></g><g class="node" transform="translate(-80.17133990009326,149.9978055689874)"><circle class="outline" cx="0" cy="0" r="25" fill="#C990C0" stroke="#b261a5" stroke-width="2px"/><text text-anchor="middle" pointer-events="none" font-family="sans-serif" dy="1.5625" font-size="25" fill="#FFFFFF"/><text text-anchor="middle" pointer-events="none" y="5" font-size="10px" fill="#FFFFFF" font-family="sans-serif"> Confere…</text></g><g class="node" transform="translate(91.64544564725479,-59.399312074968115)"><circle class="outline" cx="0" cy="0" r="25" fill="#FFE081" stroke="#9AA1AC" stroke-width="2px"/><text text-anchor="middle" pointer-events="none" font-family="sans-serif" dy="1.5625" font-size="25" fill="#FFFFFF"/><text text-anchor="middle" pointer-events="none" y="5" font-size="10px" fill="#FFFFFF" font-family="sans-serif"> Reviewer</text></g></g></svg>